<svg xmlns="http://www.w3.org/2000/svg" fill="#161616" viewBox="0 0 100 60">
    <rect width="100" height="60" fill="#fff" rx="8"/>
    <path d="m88.5 34.4.2.7v-.6a2.8 2.8 0 0 0-.2-.5v.4ZM88.2 33.8l.1.3v-.3ZM88.5 34.9c0-.3 0-.5-.2-.8l.1.4.1.4ZM87 30.3v.3l.3.5-.3-.8ZM87 30.6l-.4-.6.4.6ZM88 33.7l.3.6.1.6c0-.5-.2-1-.4-1.4v.2ZM85.4 27.8l.3.3-.5-.6.2.3ZM84.2 26.3c.3.2-.2-.4 0-.2 0-.2-.3-.4-.4-.5l-.5-.5.5.5.4.7ZM82.8 24.7l.5.4-.5-.4ZM86 28.8l-.3-.5v.3l.2.2ZM85.8 28.6l-.4-.6.4.6ZM86 28.9ZM87.4 31.8a9 9 0 0 0-.4-.7v.3c.2.2.2.1.2 0l.2.4ZM86 29.3l.5.7s0-.2 0 0c0-.3-.2-.5-.4-.7ZM85.9 29l.2.3-.2-.3ZM83.7 25.8l-.9-.9.5.5.5.6s.2.1-.1-.2ZM84.7 27.1ZM79.7 22v.1ZM83.8 26l.5.6-.5-.6ZM82 23.9ZM84.6 27c0-.1 0-.1 0 0ZM84.6 27c0-.2-.2-.3-.3-.4a11.6 11.6 0 0 0 .3.3ZM78.3 21.8l.6.2.9.7c.6.5.4 0 0-.6l-.8-.4.7.6c.2.2.4.4 0 .2a8.3 8.3 0 0 1-1-.8l-.5-.2-.6-.2.8.4s-.3 0 0 0ZM81 23.1l.2.2-.8-.8-.6-.4.6.5.6.6V23ZM82.2 24.3c-.2-.1-.8-.6-.5-.2l1 .8c-1.2-1.1.3.3-.5-.6l.6.6-.5-.6c0 .1 0 .1 0 0-.4-.3-.1 0 0 0l-.5-.5-.6-.5 1 1ZM86.5 30.8c0-.2 0-.2 0 0Z"/>
    <path d="m86.3 30.2.3.5c.1.3 0 0 0 0 0 .2.3.7 0 0l-.2-.5-.2-.4-.1-.4c0 .3 0 .5.2.8ZM84.4 27.1l-.4-.5-.4-.5.3.6.5.4ZM79.6 22h.2l-.7-.4.5.4ZM78.2 21l-.3-.2.3.2ZM41.8 21.4l-.3-.2.3.2ZM43.4 23.6s-.1-.1 0 0ZM57.5 14.2v.4l.2.2.1.4.2.2v-.2a4.6 4.6 0 0 1-.4-.6v-.2l-.1-.2ZM48 14h.2l.4-.1H48ZM47.7 14.3H47h.7ZM29 18.4l-.3.3c.6-.3.3-.2.4-.3ZM75.9 27l-.2-1.2c0 .5 0 1 .2 1.1ZM43.1 21.7l-.2-.2.2.2ZM75.3 24.4v.3a10.7 10.7 0 0 1 0-.3ZM12.6 42.7h.1ZM28 44.5h-.7.6ZM75.2 22.9c-.1-.4 0 0 0 0ZM75 21.2ZM73.4 21.3c0 .1 0 .1 0 0ZM75 22.4l.2.4-.1-.4ZM75 22.4v-.2.2ZM75.4 23.3l-.2-.5c0 .2 0 .3.2.5ZM23.4 25.7c-.4-.2-.3-.2 0 0ZM61.1 23.2l.2.3v.1a.4.4 0 0 0 .6.1.4.4 0 0 0 .2-.3v-1l-.3.5.2.5a.3.3 0 0 1-.2.3.3.3 0 0 1-.3 0l-.1-.2-.3-.3Z"/>
    <path d="m36.9 17.7.7.4-.3-.1-.3-.1-.5-.1.2.1h.5l1 .5c.7.4 1.4 1 1.5.9l.2.2.2.2-.3-.2c.2.2.5.5.8.6l1 .9.2.4.7.9c.2.2.1.2 0 0l1 1.3c0 .2.4.5.6.7a.3.3 0 0 0 .5 0V24c0-.5 0 .2 0 0v-.4l-.1-.5c0-.2 0-.1 0 0l.2.5v.5a.4.4 0 0 1-.7.3.4.4 0 0 0 .7 0V24l.1-.5-.1-.5v-.3a8.9 8.9 0 0 1-.3-.6V22l-.2-.6v.2l.1.2.2.4c0-.6-.3-1.3-.8-2.3l.2.4.2.6c0 .4 0 .6-.2.1a5 5 0 0 0-.6-1.1l-.7-1.1h.2l-.3-.4-.2-.2-.4-.3-.5-.7-.2-.3c-1-1 .6.7-.6-.4a7 7 0 0 0-1.1-1l-.7-.5-.4-.2.1.2c.1.6-.4.5-.3.5h.4c.8-.2 0 0 .2 0l.7-.2c.1 0 0 0 0 0l1-.3c.2-.2 1.8-.1 2.9-.4.3 0-.1 0 0 .1l2.5-.4h1c-.3 0-.3 0 0-.2l1.2-.1-.7-.1h1.4-.2.2c.6 0 .3.1 0 .2l-.6-.1c-.3 0-.7.1-.6.2h.5-.1.4l.3.1h1l.9.2 2 .1c.8.1 1.7.4 2.4.7-.5-.1-.1.1-.2.2-.5-.3-1.5-.5-2.5-.8.5.1.4.2.2.2.7 0 1.3.2 1.9.4l.1.2.3.1.3.2h.4a13.2 13.2 0 0 1 1.6 1h-.3s-.2 0-.3-.2l-.4-.3 1 .7.4.3.4.5-.3-.3.4.3.4.5.2.3-.1-.1c.6.7 1.1 1.6 1.6 2.4l1 1.7s-.2 0-.3-.2l.7 1a.1.1 0 0 0 .3.1.1.1 0 0 0 0-.1c0-.5-.2-1-.4-1.6.1.1.2 0 .3-.1h.2l.2.7c0-.6-.1-1.1-.3-1.7 0 .3 0 .7-.2.4v-.9l-.3-1c.1.4-.3 0-.5-.5h.3a17 17 0 0 0-.9-1.2c.2.3.2 0 0-.4a15.6 15.6 0 0 0-1-1.4l.5.5-1-1.1c0-.2-.2-.3-.3-.4a2.8 2.8 0 0 1-.3-.4V14H58l.6.1c-.2 0-.5.3.3.4h.5a11 11 0 0 1 2.8-.1l.3.1 1.1.2h-3.8c.6 0 .1 0 1 .2h-.7.5l.5.1 1.1.3c0-.1.4 0 .8 0s.8.1.8 0l-1.2-.1-1.1-.2s.3-.1.8 0c.7 0 1.4.1 2 .3.4.2-.3.2-.2.2l1.5.4-.6-.1 1 .3.6.2.7.3.5.3.4.2c-.4-.4-.3-.8 0-.8l.4.2.3.2.3.2 1 .8c.2.2 0 .2-.3 0-.2 0-.4 0-.3.1l.5.2c.3.3-.2 0 .5.5l.5.4c.1 0 .2.1.1 0l-.3-.3.6.6.6.7.5.2a3.8 3.8 0 0 1 .6.7l.2.2v.3A12 12 0 0 1 75 25v.6l.3.9c0 .4 0 .2-.1-.1 0-.3-.2-.6-.2-.2l.5 1.8c.1-.2-.2-1.6-.4-2.2.2 0 .6 1 .9 2.7.2 1.2 0 .5 0 .8v.5h-.2l.4-1v-2.3c.1-.8.3 0 .3-.3v1.3a8.8 8.8 0 0 1 0 .2v1l-.2.3.3-.9v-1.5c0-1.2-.3-2.5-.5-3.4l-.3-.6.2.6c0 .3-.1 0-.2-.2-.1-.3-.2-.5 0-.1-.4-.7-.8-1.5-1.1-2.6v-.2c0 .3.2.7.4 1l-.5-1.3a.1.1 0 0 1 0-.2h.2l.8.3-.7-.4a9 9 0 0 1 2.7 1l-.3-.2c-.2 0-.4-.2-.5-.3 0 .1 0 0-.2 0l-.3-.1-.4-.2-.7-.3c-.2 0-.2 0 0 .1l-.3-.2a.4.4 0 0 0-.6.3V20l.6 1.7s0-.3.2.4v.2c.1 0 .1 0 0 0v-.4l.4 1 .4 1c0 .4-.1-.2-.1 0l.2.7s.1 1.2-.1.2l.1 1 .1 1.8v.7l-.5 1.3.8.2-.9-5.2-.7-1.9v-.2l-.6-1.3a4 4 0 0 0-.6-.9L72 18.6 70 17h-.2l-2.4-1.2v.1c-.9-.3-2.2-.9-3.6-1.2.3 0 .5 0 .7.2l-1.3-.4-1.3-.3-1.3-.1-1.2-.3h-.9.1-.2l-.5-.2a.4.4 0 0 0-.4.3l-.1.2a.6.6 0 0 0 0-.2.4.4 0 0 1 .5-.3l.4.1H58a.4.4 0 0 0-.4.2V14.5l.1.2.3.4v.2c.3.4.3.3.2 0 .1.3.3.4.4.5 0 .4.7 1 .8 1.5l.6 1c.3.4.5 1 .7 1 0 0 0 .1-.1 0l.5 1.2v.2c0 .4.2.7.3 1v.6l-.2-.3.2 1.3h.5l-.5-1.1-.7-1.3a12.3 12.3 0 0 0-3.5-4.6c-.6-.5-1.3-1-2-1.3l-.4-.2-.3-.1-.2-.1-.4-.1c-.1-.1-.5-.3 0-.2a41.7 41.7 0 0 0-3.1-.6h.2a2.7 2.7 0 0 1-.6-.1h.4-1.3a.5.5 0 0 0-.4.1 5 5 0 0 0-.9 0h-.7.2H46l-1.4.2a5 5 0 0 0-.8 0l-1.2.2c-.3 0-.6 0-1.1.2h.3l-1.8.3a10.4 10.4 0 0 0-1.8.3H38s-.2 0-.2.2l.1.2.2.2.5.4v-.2l.3.2.5.5.3.3.3.3.7.7-.3-.4.4.4.3.6.6 1-.2-.3.5.7.4.4c0 .2-.3-.2.1.5l.1.2.2.3.4.8c.3.5.5 1.2.5 1.8v-.2l.1.3v.3l.7-.2c-.5-.7-1.1-1.8-1.7-2.3v-.1l-1-1c-.1-.3-.3-.5-.5-.6l-.4-.3c0-.2-.3-.4-.6-.7a13.5 13.5 0 0 0-1.1-.9c-.9-.5-1.8-.8-1.7-1l-2-.5h-.9a4.3 4.3 0 0 0-1.4 0h-.1a9.7 9.7 0 0 0-3.7 1h-.2l-.6.2-.5.1-.6.3a17.3 17.3 0 0 0-2.5 1.1 29 29 0 0 1-3 1.7l-.7.4-.1.1c-.2-.4-.2 1.2 0 .9h.1l.3.2.5.2.4.1.6.4.5.4-.5-.5h.1c.2.1.5.3.2 0l.4.4.4.4c.2.2.2.3-.1 0l-.1-.1c-.2 0 .2.3.6.7l.5.7c.2.1.2.3.2.3a12.7 12.7 0 0 1 2.2 4.3l.7-.3a28.7 28.7 0 0 0-4-4l.3.4-.5-.4-.5-.3-.1-.2c.2 0 .4.2.6.4a2.3 2.3 0 0 0-.8-.5l-.5-.3c-.8-.4-.6-.3-.3-.2h.2l.2.2c.1 0 .2 0 0 0a7 7 0 0 0-.6-.3h.2l-.7-.1-.4-.1a11 11 0 0 0-1-.2h-.7l-1.5.3h.6-.4l-.4.2c-.2.1-.2.2.2 0l-.5.2-.4.2-.4.2-1.5 1.2-2.2 2-.9 1-1 1.2c.1-.1.2-.1.2 0h-.1l-.2.3-.1.3c0-.2-.1-.1-.2 0l-.4.6-1 1.5c.2-.2.1 0 0 .1v.4l-.2.5-.2.8.1-.1c-.2.8 0 0-.3.6-.2 2 0 4.5 1.5 6.6 0 0-.2-.3.2 0 .2.4.6.8.9 1 .1.2.3.3.5.3l.7.4s-.2-.2 0 0c1.2.4 2.4.7 3.6.8h5.4a161.7 161.7 0 0 1 5.6 0c-.3 0 0 0 0 0h1.9l2.3-.1H31c.8-.1-1.2-.3-1-.5-1 .2-2.5-.2-4 0-.4 0 .2 0 0-.1h-1.7.1-6.2l.2.1a6 6 0 0 1-1 0h.5c.4 0 .9 0 .6.1-.4 0-1.4 0-2.4-.2-1-.1-2-.4-2.1-.6-.8-.2.2.2-.6 0L13 43h-.2a4.2 4.2 0 0 1-.6-.4l-.1-.2.4.3a9.3 9.3 0 0 1-1.4-1.2l-.2-.2.2.3.2.3-.3-.3-.2-.4-.4-.8-.2-.4-.2-.5c-.2-.6-.4-1.2-.4-1.9V35v.2l.2-1 .2-.3v-.3l.4-.6.2-.4.3-.6v.1l.2-.6.5-.6c-.1 0 0 0 0 0l.1-.1c.2-.2.3-.3.1 0l1-1.1c0-.3.2-.5.4-.8l.3-.1c.2-.4.6-.8 1-1.1-.6.6.5-.4-.1.3l1.8-1.6c.5-.4.8-.7 1.3-.8.2-.2.2-.2 0-.2a4 4 0 0 0-.5.3l-.6.4c-.2.1 0 0 .2-.3a7.8 7.8 0 0 1 1-.6l.4-.2h.5c.5-.2 1-.3 1.6-.3H20h.9l.5.2h.2l.2.2c.2 0 .5 0 .6.2h.5a6.2 6.2 0 0 0-1.1-.4h.3l.6.3 1.5 1a18.3 18.3 0 0 1-.2 0l.5.3-.4-.1-.2-.2-.4-.3-1.4-.7.4.2.4.2c.3.2.5.3.2.2.2 0 .4.2.5.3l.6.3 1.1 1 .6.6-.5-.3c.7.5 1.2 1.3 1.8 1.9-1.2-1.3-.2-.4-.7-1 1 .9 1 1.1 1.3 1.5a.4.4 0 0 0 .7-.3v-.1c0-.4 0-.9-.6-2l.3.8-.6-1.4c-.9-1.5 0 .3-.4-.3-.2-.6-.4-.7-1-1.3h.1c-.1-.4-.3-.6-.6-.8l-.2-.2c-.1 0-.2 0-.8-.7l.6.4-.7-.6h.2l-.5-.4-.4-.3-.4-.3-.5-.4c0 .1 0 .1-.1 0l-.9-.4-.1-.1h-.1.2a.4.4 0 0 1 0 .4l-.2.2a18.5 18.5 0 0 0 .2 0h-.1a.5.5 0 0 0 0-.8v.1l.4.2.3.1a4 4 0 0 0-.4-.3l-.3-.1a.5.5 0 0 1 .3.4.5.5 0 0 1-.3.5l.2-.1.8-.5-.4.2.7-.5.7-.5-.1.1 1-.6-.7.6 1.4-.9.6-.2c.8-.4 2-1.1 3.1-1.5l.4-.2.8-.2.8-.2.8-.2 1-.2h.7c.5 0 .3 0 0 0 0-.1-.2-.2.7-.2h.7l.2.2h.5a6.1 6.1 0 0 1 1.3.3 4 4 0 0 1 .8.3c-.2 0-.3 0-.5-.2l-.4-.1Zm7 3.3.3.5.1.4-.2-.3-.2-.6Zm6-6.8h-.7.8Zm26.2 12.3c0 .6 0 .4 0 0Zm-.1-1.1c0-.1 0-.1-.1 0l.1.5v-.5Zm-56-1.5h.3-.3ZM47.7 14.3c-.2 0-.2 0 0 0ZM29.2 18.4H29ZM70 18.2Z"/>
    <path d="m75.4 19.5-.6-.2a.6.6 0 0 0-.7.8l.1.1v-.1a.5.5 0 0 1 .6-.8l.5.2h.1ZM80.8 23.6l.2.2-.2-.2ZM76 20c0 .2.4.4 1 .6h-.1l-1-.5ZM77 20.7l.5.2-.5-.2ZM75.6 24c0-.3-.2-.2-.2-.3-.1-.3.6 1.5.2.2ZM76.3 20.5l-.2-.2h-.3l.5.2ZM75.5 22.2l-.3-.8-.1-.2.4 1ZM75.1 21.2l-.3-.7.3.7Z"/>
    <path d="M75.2 20h-.3l-.3-.1.2.2-.1-.3.5.3ZM75.8 28.7l-.2-1v.6c0 .2.1.6.2.4ZM76.6 28.4c0 .2 0 .3-.2.4l.1.1.1-.5ZM75.5 28.8s-.3-1.3-.1-.1c0 0 .2 1 0 .1ZM69 17.2h.2v-.1H69ZM58.8 14.6l-.3-.5v.2l-.5.3h.3-.3l.4-.3v-.1l.2.3.2.2Z"/>
    <path d="m58.4 14.2-.4.3h.1-.1l.3-.2v-.1ZM30.5 44.6h.7-.7ZM31.9 44.5H32.5h-.6ZM43.1 19.1c0 .2.1.4.3.5l-.3-.5ZM41 20.8l.2.2-.1-.3v.1ZM34.6 17.5l1 .1c-.7 0-1.1-.2-1 0ZM30.4 43.8h4.9v-.1c-1.3 0-1.7-.5-1.7-2.1V33.7c2.6 0 3.2.6 3.7 2.7v-1.8c0-.5 0-1-.2-1.2-.3.2-.9.2-1.2.2h-6c-.4 0-1 0-1.3-.2l-.2 1.2v1.8c.5-2 1.2-2.7 3.7-2.7V41.6c0 1.6-.3 2-1.7 2.1v.1Zm7.7.1c1 0 1.5-.4 2-1.3l.2 1c.2.2.4.3.7.3l1.8-.6v-.1h-.6c-.6 0-.8-.5-.8-1.6v-2.5c0-1.7-.8-2.2-1.7-2.2a4 4 0 0 0-1.7.4c-.7.4-1.1.7-1.1 1.1 0 .4.3.7.8.7h.3l.2-.2v-1.5h.6c.4 0 .8 0 1 .4.2.3.3.8.3 1.5v.7l-2.7.8c-.6.4-.9 1-.9 1.7 0 .9.7 1.4 1.6 1.4Zm.8-.7c-.5 0-1-.3-1-1 0-.6.2-1.1.5-1.4l1.7-.6v2c0 .6-.7 1-1.2 1Zm6.6-8.3.1-1.9-2.6.7v.1l.9.2c.2.3.3.9.3 1.7v6.1c0 1.6-.3 1.8-1.3 1.9v.1h3.9v-.1c-1 0-1.3-.3-1.3-1.9v-7Zm5.3 9c.6-.2 1.4-.5 2-1-.5.2-1 .3-1.6.3-1.4 0-2.5-1-2.4-3.4h3.8l.2-.2c0-1.5-.7-2.7-2.4-2.7-1.8 0-3 1.4-3 3.6 0 2.4 1.3 3.6 3.4 3.4Zm-2-4.3c0-1.3.5-2.6 1.4-2.6.8 0 1.2 1.2 1.2 2.6h-2.6Zm7-2.6v-.1l-2.5.8.9.3c.2.2.3.6.3 1.6V42c0 1.3-.4 1.6-1.2 1.7v.1H56.7v-.1c-.8-.1-.9-.5-.9-1.7v-3.8a5 5 0 0 1 1-.4c1.2 0 1.7.4 1.7 2V42c0 1.1 0 1.6-1 1.7v.1a28.4 28.4 0 0 1 3.2 0v-.1c-.8-.1-.9-.5-.9-1.7v-2.6l-.1-1.2 1-.4c1.3 0 1.8.4 1.8 2V42c0 1.3-.2 1.6-1 1.7v.1a36.8 36.8 0 0 1 3.4 0v-.1c-.8 0-1-.4-1-1.7v-2.5c0-1.9-.7-2.6-2-2.6-.2 0-.6 0-.9.2l-1.3 1c-.3-.8-.9-1.2-1.6-1.2-.3 0-.6 0-.9.2l-1.4 1V37ZM69 44l2-1v-.2c-.5.3-1 .4-1.6.4-1.4 0-2.5-1-2.5-3.4h3.9l.1-.2c0-1.5-.6-2.7-2.4-2.7-1.7 0-3 1.4-3 3.6 0 2.4 1.3 3.6 3.5 3.4Zm-2-4.4c0-1.3.4-2.6 1.3-2.6s1.2 1.2 1.2 2.6H67Zm7-4.7V33l-2.6.7v.1l1 .2c.2.3.2.9.2 1.7v6.1c0 1.6-.2 1.8-1.2 1.9v.1h3.8v-.1c-1 0-1.2-.3-1.2-1.9v-7Zm3.5.7c.5 0 .9-.4.9-.9s-.4-1-1-1a1 1 0 0 0-.9 1c0 .5.4 1 1 1Zm-1.8 8.2a39.3 39.3 0 0 1 3.8 0v-.1c-1-.1-1.2-.4-1.2-1.9V37l-2.5.8.9.3c.2.3.3.8.3 1.6v2.2c0 1.6-.3 1.8-1.3 1.9v.1Zm8 .1c.6-.2 1.3-.5 2-1-.5.2-1 .3-1.6.3-1.4 0-2.5-1-2.5-3.4h3.9l.1-.2c0-1.5-.6-2.7-2.4-2.7-1.7 0-3 1.4-3 3.6 0 2.4 1.3 3.6 3.4 3.4Zm-2-4.3c0-1.3.4-2.6 1.3-2.6s1.2 1.2 1.2 2.6h-2.6Zm4.4-1.9 1 .3c.1.2.2.6.2 1.6v2.1c0 1.4-.1 2-1.2 2v.1a40.9 40.9 0 0 1 3.9 0v-.1c-1.2 0-1.3-.6-1.3-2v-2.9c.3-.4.7-.7 1.2-.8.5 0 .9.2 1.4.5l.2-.5c0-.6-.3-1.1-1-1.1a2 2 0 0 0-1 .6 6 6 0 0 0-.8 1.2v-1.8l-2.6.8Z"/>
</svg>