<svg xmlns="http://www.w3.org/2000/svg" fill="currentColor" viewBox="0 0 403 160"><path d="m402 94-1 2 2 2-1-4Zm-1 2-2-4 2 4Zm-7-15 2 1-3-3 1 2Zm-6-9c2 1 0-2 1-1l-3-3-2-2a24 24 0 0 1 4 6Zm-7-8 3 2-3-2Zm15 22-1-3v2l1 1Zm-1-1-2-3 2 3Zm1 2v-1 1Zm7 15a32 32 0 0 0-3-3v2h1l2 1Zm-7-13 2 4h1l-3-4Zm-1-2 1 2-1-1v-1Zm-10-17-4-4 2 3 2 2v-1Zm5 7Zm-25-27v1-1Zm20 22a13 13 0 0 0 3 3l-3-4v1Zm-9-12Zm14 16Zm0 0-2-1 2 2v-1Zm-34-25c1-1 2 0 3 1l5 4c3 2 3-2 1-5l-4-2 3 3c1 2 2 3 0 2l-3-3-2-2-2-1h-4l4 2-1 1Zm15 5 1 1-3-5-4-2 3 3 3 3Zm7 6c-2 0-5-3-4 0l5 4c-5-6 2 1-1-4l3 4-3-4v1-1c-2-1 0 0 0 0l-3-2-3-3 6 5Zm19 35c-1 0-1 0 0 0Zm-1-3 1 3c1 1 0 0 0 0 0 1 2 3 1 0h-1v-3l-1-2v-2a12 12 0 0 0 0 4Zm-9-16-2-3-2-2 2 3 2 2Zm-22-29h1l-4-1 3 1Zm-8-5h1l-2-1 1 1Zm-187-1-2-2 2 2Zm7 11h1-1Zm73-46v2l1 1v1l1 2 1 2v-1a17 17 0 0 1-3-5 13 13 0 0 1 0-2Zm-45-3h1l2-1-3 1Zm-2 3h-4 4Zm-94 18-2 2c3-1 2-1 2-2Zm236 50v-6 6ZM180 42l-1-1 1 1Zm163 20 1 2 1 6a15 15 0 0 0-2-8ZM21 141Zm76 16h-4 4ZM338 56c-1-2 0 0 0 0Zm1-9Zm-7 0Zm6 6Zm-1 1v-2 2Zm2 4ZM77 60c-2-1-1 0 0 0Zm199-10Zm-9 5 1 2 1 1a4 4 0 0 0 7-2v-6l-2 3 1 2a2 2 0 0 1-3 3l-3-2-2-1Z"/><path d="m147 24 3 2a73 73 0 0 1-6-1l1 1h3l5 2c3 2 6 5 7 4l1 1v1l-1-1 4 3c1 1 3 1 5 4l1 3 3 4c1 1 1 1 0 0a193 193 0 0 1 5 7 53 53 0 0 1 3 3l1 1a3 3 0 0 0 5-2v-1c0-3 0 1 0 0v-2l-1-3h1l1 3v2a4 4 0 0 1-8 3v-1 1a4 4 0 0 0 7 1l1-4a8 8 0 0 0 1-3v-2l-1-2a22 22 0 0 1-1-3v-1l-1-4 1 2v1l1 2v-3l-1-3-1-3-1-4v2l1 4c0 2 0 3-2 1l-3-6c1-1-1-3-3-6l1-1-1-2-1-1-2-1-3-4v-2l-2-2 1 1v1c-1 1-1 0-3-1a30 30 0 0 0-6-6 44 44 0 0 0-3-2l-2-2 1 2c1 6-4 5-3 5h2c4 0-1 1 1 1l3-1h1l4-2c1-2 10 1 15-1 2 0 0 0 0 1l13-3 5 1c-2-1-1-1 0-2l6-1-4-1 8-1c1 1 0 1-1 1h1c2 1 1 1-1 2l-2-1-3 2h2l-1 1 2-1 2 2V8l5 1 4 1h10l13 3c-3 0-1 1-2 2a6 6 0 0 0-2-1l-3-1-4-1-3-1 1 1 9 2c-1 1 0 1 1 2h1l1 1h2l2 1 6 4h-1l-2-1-2-1a9 9 0 0 0 5 3l2 1 2 3-1-2a14 14 0 0 1 3 4l1 3-1-1 8 12 6 8a7 7 0 0 1-3 0l5 5a1 1 0 0 0 2-1c0-3-1-5-3-8h5l1 3-1-9c0 2-1 4-2 2V33c0 2-3 1-4-2h3a82 82 0 0 0-6-6c2 1 2-1 2-3l-2-3-2-4 1 3a17 17 0 0 0-5-6l-2-2a11 11 0 0 1-2-2h-1 3c-1 1-3 3 2 4l2-1 4-1c3-1 7-2 11-1l1 1 6 1a306 306 0 0 1-20 2l5 2h-4 3l2 1 6 2c-1-1 2-1 4-1h4l-6-1h-6c0-1 2-2 5-2l10 2c2 1-2 2-2 2a23 23 0 0 1 8 2h-4l6 1 3 1 3 2 2 2 2 1c-2-2 0-7 2-7l2 1 1 1 2 2 4 4c1 2 0 2-2 2-1 0-2-1-2 1h3c1 2-1 1 2 3l3 2a13 13 0 0 0-1-2l3 3 3 4h2a15 15 0 0 1 4 4l1 1v1l4 10 2 10c0 1 0 4-1 3l2 4c0 2-1 1-1 0 0-2-1-3-1-1l3 9c1-1-1-8-2-11l3 3a44 44 0 0 1 3 10v7l-3-1a10 10 0 0 0 2-4V74l2-2 1 1v6l-2 5 2-4-1 4v2l-1 1 2-4 1-8-2-18c-1-1-2-4-2-2l1 3-1-1c-1-2-1-3-1-1-2-4-4-7-5-13v-1l2 5-2-7a1 1 0 0 1 2-1 9 9 0 0 0 4 1l-3-3c4 1 9 2 14 6l-2-2a9 9 0 0 1-2-2h-3l-2-1-3-2v1a8 8 0 0 0-2-1 4 4 0 0 0-6 3v3l2 8 1 2 1 1v-2l2 5 2 5c0 2-1-1-1 0l1 3c0 1 0 7-2 1l1 5v13l-2 5 8 3v-1l-2-12-1-14-4-10 1-2-3-6-3-5c-1-3-3-7-7-10l-11-9v1a58 58 0 0 0-13-7v1l-4-1-2-1-2-1a284 284 0 0 0-8-4h-2l3 1-6-3-7-1-7-1-6-2h-4l-1-1h-2a4 4 0 0 0-5 2 6 6 0 0 0-1 2l1-2V4a4 4 0 0 1 5-1h2-2c-2 0-4 1-5 3a6 6 0 0 0 0 1v3l1 1 1 2v2c1 2 1 1 1 0a21 21 0 0 0 2 2c0 2 4 5 4 8l3 5c1 3 3 4 4 5l-1-1a34 34 0 0 0 3 7l-1 1 2 5-1 3-1-2 1 7 6-1-3-5-3-7a50 50 0 0 0-9-16 69 69 0 0 0-18-16l-2-1-2-1-1-1h-2c0-1-2-2 0-1l-9-3-3-1h-4c0-1 2 0 1-1h-3c-1-1 1-1 3-1h-8a3 3 0 0 0-2 3l-4-1a10 10 0 0 0-4 1c-1-1-3-1 1-2h-9l-7 1h-4l-6 1h-5 1c-2 2-5 1-9 2l-7 1a7 7 0 0 1-2 0h-1l-2 3 1 1v1h1l2 2v-1l2 1 3 3 1 2 1 1 3 4v-2a6 6 0 0 1 1 2l2 3 1 6-1-1 2 3c1 0 1-1 3 2 0 1-2-1 0 3v1l1 1 2 4c2 3 3 6 2 9l1-2 1 2v2l6-2c-2-4-5-10-8-12v-1l-5-6a49 49 0 0 0-5-4l-2-4-3-3-3-2-9-5a46 46 0 0 0-11-4h1-5a18 18 0 0 0-8 1v-1l-10 1-4 1-5 3-1-1-3 1-3 1-3 1a59 59 0 0 0-14 6l1-1-8 4-8 4-4 2h-1c-1-4-1 12 1 9l2 1 2 1h2l3 2 3 2a17 17 0 0 1-3-3h3a19 19 0 0 1 3 4h-1v-1l3 5 2 3 1 2a58 58 0 0 1 10 21l6-3a139 139 0 0 0-19-21l1 3-3-2-2-2-1-2 3 2-1-1a12 12 0 0 0-2-2 8 8 0 0 0-4 0c-3-3-3-3-1-2h2l1 1s1 0 0 0l-3-2h-3l-2-1-4-1-2-1h-1a32 32 0 0 0-11 2h4l-3 1-2 1h1l-3 1h-1l-2 1a55 55 0 0 0-9 6L25 69l-5 5-3 3-1 1-1 1v1h-1 1v-1l1 1-1 1v1l-1 1h-2l-2 3-6 7c1-1 1 0 1 1l-1 2-1 2a24 24 0 0 0-1 4c0 1 0 2 1 0l-1 2-1 1-1 4v9l1 4v5l1 2 1 3 1 4 1 1 1 1v2l1 1s0-3 2-1a31 31 0 0 0 4 7l3 1s2 0 3 2c0-1-1-1 1-1a51 51 0 0 0 18 6l18 1h18l18 2c-3-1-1-1 2-1-2 0 0 0-1-1l10 2c2-2 11 0 12-1h-3c4-1-6-4-5-6-5 2-13-3-20 0-2-1 1-1 0-1h-9 1l-15-1h-4l-2-1H47l1 1-4-1c-2 1 0 1 2 1s4 0 3 1l-12-2c-5-1-9-2-10-4h-3l-1-1h-1l-2-1-1-1v-1l2 1-5-3-1-2a7 7 0 0 1-1-1l1 1 1 1-2-1-1-1-2-4-1-3v-2l-1-4-1-5v-5l1-8H8a24 24 0 0 1 2-6l1-1 1-3 3-5v1a20 20 0 0 1 3-7v1h1v-1c1 0 2-1 1 1l4-6 3-4 1-1 5-6c-3 4 3-1 0 3l10-8 3-2 3-1v-2l-2 2-4 2 1-2a25 25 0 0 1 5-3l2-1h11-2l4 1a8 8 0 0 1 5 1l3 1h2a30 30 0 0 0-7-3l2 1h1l3 1 8 5-4-2 2 2 2 2h-1l-2-1-1-1a18 18 0 0 0-7-4l1 1 3 1c1 1 2 1 0 1l3 1 3 2c1 2 3 4 6 5l-1 1 3 2-3-1 9 10c-6-7-1-2-3-6l6 8a4 4 0 0 0 7-1l1-3v-3a18 18 0 0 0-2-5l1 2h-1l-2-8c-2-4-2-3-2-2s1 2-1 1l-1-4-4-3h1a18 18 0 0 0-3-4l-1-1c-1 0-2 0-5-4l4 2-4-3h2l-3-2-2-2-2-2-3-2c1 1 0 1-1 1l-4-2-1-1v-1l1 2a4 4 0 0 1 0 3l-1 2 2-2-1 2h-1 1a5 5 0 0 0 0-7l-1-1a8 8 0 0 1 2 2h3a42 42 0 0 0-4-2c-1-1 2 0 3 4-1 5-4 5-3 5h1l4-3-2 1 3-3 4-2-1 1 5-3-3 3 7-4 4-1 7-3a32 32 0 0 1 8-4l2-1 4-1 4-1 4-1h5l3 1c3 0 1-1 1-1-1-1-2-1 3-2l3 1 1 1h5l4 1 1 1 2 2-2-1-2-1h-1Zm38 15 1 2 1 3a4 4 0 0 1-2-2l-1-3Zm30-32h-5 4Zm127 67c-1 3-1 2 0 0Zm0-6h-1l1 3v-3ZM61 47l1 1h-1Z"/><path d="M203 8a1 1 0 0 1 0-1v1Zm-94 18Zm205 6-2-2 2 2Zm29 4-3-1v-1a6 6 0 0 0-7 8v1a15 15 0 0 1 0-1 6 6 0 0 1 7-7l3 1s-1-1 0 0Zm26 24 1 1-1-1Zm-23-20 4 3c1-1-2-2-4-3Zm5 3 2 2c1-1-1-1-2-2Zm-11 18-1-1 1 3v-2Zm6-17v-2h-2l2 1Zm-4 8-1-4-1-1 2 5Zm-2-5Zm1-6-1-1h-2l1 1-1-1 3 1Zm2 44-1-5v3c0 1 0 3 1 2Zm4-1-1 2h1v-2Zm-7 2c-1-1-2-7-1-1 0 0 1 5 1 1Zm-30-61 1 1 1-2-2 1ZM262 9l-2-2v2l-1 1-5 2 2 1c1-1 0-1-2-1l5-3V7v1h1l1 1h1Z"/><path d="M259 7v1l-1 1-3 2 3-2a3 3 0 0 0 1-1V7ZM110 159l3 1-2-1h-1Zm7-1 1 1 2-1h-3Zm65-130h-1l2 3-1-3Zm-16 12v1-2 1Zm-31-16h5c-3 0-5-2-5 0Z"/></svg>