<svg xmlns="http://www.w3.org/2000/svg" fill="#161616" viewBox="0 0 136 55"  width="128">
    <path d="m131 36.8.4 1.2c0-.3-.2-1.3 0-1a4.6 4.6 0 0 0-.3-.7v.5ZM130.7 35.8l.1.6-.1-.6ZM131.2 37.6l-.4-1.2.2.6.2.6ZM128.6 30.2l.1.5.4.7-.5-1.2ZM128.7 30.7l-.7-1 .7 1ZM130.4 35.7l.3 1 .3 1-.7-2.4v.4ZM126.1 26.1l.5.5-.8-.9c0 .2.2.3.3.4ZM124.2 23.6c.4.4-.3-.6 0-.2a14 14 0 0 0-.8-.9l-.7-.7.7.8.8 1ZM121.8 21l.9.8a9 9 0 0 0-.9-.7ZM127 27.8l-.5-.9.2.5.3.4Z"/>
    <path d="m126.7 27.4-.6-.9.6 1ZM127 28v-.2.1ZM129.4 32.6l-.7-1c-.1-.3-.2-.3.1.4l.2.1.4.5ZM127.2 28.5l.6 1.2s0-.3.2 0l-.8-1.2ZM126.8 28l.4.5-.2-.4-.2-.1ZM123.3 22.8l-1.4-1.3.8.8.7.9c.1 0 .4.2-.1-.4ZM125 25v-.1s0 .1 0 0ZM116.8 16.8v.1h.1-.1ZM123.5 23.3l.8.9-.9-1ZM120.4 19.7ZM124.8 24.7ZM124.8 24.7l-.5-.5a18.6 18.6 0 0 0 .5.5Z"/>
    <path d="M114.6 16.4c.3 0 .6.2.9.4l1.4 1.1c1 .7.7-.1 0-1l-1.2-.6 1.1 1c.4.3.6.6.2.3a13.5 13.5 0 0 1-1.8-1.5c.3.3-.2 0-.7-.2-.6-.3-1.1-.5-1-.3l1.3.7s-.5-.2-.2 0ZM118.8 18.5l.4.3-1.3-1.3-1-.6 1 .8 1 .9-.1-.1ZM121 20.5c-.4-.2-1.4-1-1-.4l1.6 1.3c-1.8-1.8.6.4-.6-.9l1 1-1-1h.1c0 .1 0 .1 0 0h-.2c-.5-.6 0-.1.2 0l-1-.8-.9-.9 1.8 1.7ZM128 31v-.1c-.2-.2-.2-.2 0 0Z"/>
    <path d="m127.5 30 .5.8c.2.5 0 0 0 0 .1.4.6 1.1.1.1v-.1l-.4-.8-.3-.6-.2-.6.3 1.2ZM124.5 25l-.7-.8-.7-.8.6.9c.8.9.7.6.8.7ZM116.6 16.6h.4l-1.1-.5.7.5ZM114.4 15h.1l-.6-.3.5.4ZM55.2 15.8l-.4-.4.4.4ZM57.8 19.3h.1c-.1-.1-.2-.2 0 0ZM80.8 4v.4l.1.3.2.4.2.5.3.5v-.3a7.5 7.5 0 0 1-.7-1.2v-.2l-.1-.4ZM65.5 3.6h.8-.8ZM64.9 4.2h-1.2 1.2ZM34.7 11l-.6.3c1-.4.5-.3.6-.4ZM110.6 24.7l-.3-1.9c.1 1 .1 1.7.3 2ZM57.5 16.2 57 16c.2.3.4.4.4.3ZM109.7 20.6l.1.4a17.5 17.5 0 0 1 0-.4ZM8 50.3l.1.1h-.2ZM32.8 53.3h-1 1ZM109.5 18.1c-.2-.5 0 0 0 0ZM109.1 15.3c0 .2.1.2.2.2l-.2-.2ZM106.6 15.7ZM109.3 17.3l.2.7-.2-.7ZM109.3 17.4l-.1-.4.1.4ZM109.8 18.9l-.3-1v.2l.3.8ZM25.4 22.7v-.1c-.6-.3-.4-.1 0 0ZM86.6 18.7c.2.2.3.3.3.5l.1.1a.6.6 0 0 0 1 .2.6.6 0 0 0 .2-.5v-1.6l-.4.7.3.9a.5.5 0 0 1-.3.5.5.5 0 0 1-.5 0l-.2-.4-.5-.4Z"/>
    <path d="m47.3 9.7 1.2.6-.6-.1-.4-.2-.8-.2c-.3 0-.3 0 .3.3h.9l1.6.8c1.2.7 2.2 1.5 2.4 1.4l.3.4.3.3-.4-.4c.3.5.8.8 1.2 1 .6.4 1.1 1 1.5 1.5l.5.7 1.2 1.4a68 68 0 0 1 1.5 2.2l1 1v.2a.5.5 0 0 0 .7 0 .5.5 0 0 0 .2-.4v-.3.2-.8l-.2-.8c0-.4 0-.2.1.1l.2.7v.9a.7.7 0 0 1-1.2.4v-.1a.6.6 0 0 0 1.2 0l.1-.3v-1.7l-.2-.5a14.3 14.3 0 0 1-.3-1l-.1-.3-.4-1 .2.3.1.4.3.7c0-1-.6-2.2-1.3-3.8l.2.7.4 1c.1.5.1.9-.3 0-.2-.6-.6-1.2-1-1.7.1-.1-.4-1-1-1.8h.2l-.5-.6-.3-.3-.6-.5-.9-1.1a3 3 0 0 1-.2-.6c-1.6-1.6.9 1.2-1-.6a11.5 11.5 0 0 0-2-1.6c-.2-.3-.6-.5-1-.8l-.6-.4.2.3c.1 1-.7.9-.5.9H49.8l.4-.2c1.2-.1-.2.2.2.2l1.1-.4h.1c1-.2 0-.2 1.5-.5.4-.3 3-.1 4.8-.6.5 0-.2.1 0 .2l4-.7h1.8c-.6 0-.5-.1-.1-.2l1.9-.3-1.1-.2h2.3l-.3.1h.3c.9 0 .4.1-.2.2l-.8-.1-1 .4h.8-.2.7l.5.2.1-.1 1.5.1 1.5.2 3.2.2c1.4.2 2.7.6 4 1.2-.9-.2-.3.1-.4.3-.8-.6-2.4-1-4.1-1.3.9.2.7.3.4.2l3 .8.3.3.4.2c.2 0 .4.2.5.3 0-.1 0-.2.2-.1l.4.1.5.3 2 1.4h-.3l-.5-.4-.7-.5c.5.4 1 .8 1.5 1l.8.6.7.7-.5-.4.6.5.6.7c.3.5.6.8.4.7l-.3-.3c1 1.2 2 2.6 2.7 4 .8 1.3 1.5 2.6 1.7 2.7l-.6-.3c.5.5.8 1 1.2 1.6v.1a.2.2 0 0 0 .3 0 .2.2 0 0 0 .2-.1c-.1-.9-.3-1.7-.6-2.6.1.2.3 0 .5-.2l.2.1c.2.3.3.7.3 1 0-.9-.1-1.8-.4-2.7 0 .5-.1 1.1-.3.6l-.1-1.4-.5-1.6c.2.6-.4 0-.8-.9.2.2.3-.2.5.1l-1.4-2c.3.5.3 0 .1-.6l-.5-.9-1-1.4.5.9a10 10 0 0 0-1.5-2l-.6-.6a4.6 4.6 0 0 1-.4-.6l-.1-.2h-.1l1 .1c-.3 0-.8.4.5.6l.8-.1a18 18 0 0 1 4.5 0l.5.1 1.8.3H86l-1.5-.1c1 .2.2.2 1.8.4H85h.8l.9.3c.6 0 1.2.2 1.7.3h1.3l1.3.2-1.9-.3-1.9-.3A16 16 0 0 1 92 6c.5.3-.6.3-.6.3L94 7l-1-.2 1.8.5 1 .3 1 .5.9.5.6.4c-.7-.7-.6-1.4 0-1.3l.6.3.4.3.5.3 1.7 1.3c.3.4 0 .3-.4.1-.4 0-.8-.2-.5.1l.7.3c.5.4-.3 0 .8.7l1 .7.1.2-.1-.2-.4-.4 1 1 1 1c-.1-.2.2 0 .6.4a6.2 6.2 0 0 1 1 1l.4.5c-.1 0 0 .2 0 .4a19.3 19.3 0 0 1 2.4 6.1c0 .2.3 1.4 0 1l.5 1.3c0 .8 0 .4-.2 0 0-.5-.2-1-.2-.5l.8 3c.1-.4-.4-2.5-.7-3.5.2-.1 1 1.7 1.4 4.3.4 2 0 1 0 1.3l.2.8-.5-.1c.3-.4.5-1 .6-1.5l.2-1V24c0-1.2.3 0 .5-.3v2a14 14 0 0 1 0 .3l-.1 1-.2.7c0 .2 0 .3-.2.5.3-.5.4-1 .5-1.5.1-.8.2-1.7.1-2.5 0-2-.6-4-1-5.5a28.4 28.4 0 0 1-.2 0c.1.4 0 0-.2-.3l-.1-.2-1.7-4.1v-.4l.6 1.6-.7-2a.2.2 0 0 1 .1-.4h.2c.4.2 1 .4 1.4.4l-1.2-.5c1.5.3 3 .8 4.3 1.6a2 2 0 0 0-.5-.4l-.8-.5c.2.2 0 .2-.2 0l-.6-.2-.6-.3-1.2-.4c-.2 0-.2 0 .1.1-.2 0-.4-.2-.5-.3a.7.7 0 0 0-1 .4V13.5c.3.8.7 1.5 1 2.7 0 0-.1-.5.3.7l.1.3-.1-.7.7 1.6.5 1.7c.2.7-.1-.3 0 0 0 .4.2.8.3 1-.1.2.2 2.2-.3.4l.3 1.6.1 3V27c-.2.7-.5 1.4-.9 2l1.4.4c-.3-2.7-.9-5.4-1.5-8.4-.2-.9-.6-1.7-1.1-3.2v-.3l-1-2-1-1.5a9.3 9.3 0 0 0-2.2-2.8c-1-1-2.2-1.9-3.4-2.6h-.1l-4-2V7c-1.4-.5-3.5-1.5-5.8-2l1.1.2-2-.6-2.2-.4-2-.3c-.7 0-1.4-.2-2-.3l-1.5-.2h.1-.3l-.7-.2a.7.7 0 0 0-.8.4v.1l-.1.3a1 1 0 0 0 0-.3h.1a.6.6 0 0 1 .8-.5l.6.2h-.6a.7.7 0 0 0-.8.3V4.5l.2.3.4.6v.4l.2.1c.3.6.4.4.2 0l.6.8c.2.6 1.1 1.5 1.3 2.3.4.5.8 1 1 1.7l1.1 1.6s0 .2-.1-.1l.8 2.1v.4l.5 1.6v1l-.2-.6.2 2.2 1-.2-1-1.7h.1L86 15a20 20 0 0 0-5.7-7.5c-1-.8-2-1.5-3.1-2.1.3.4-.2 0-.8-.2l-.4-.3-.5-.2H75c-.2-.3-.8-.5-.1-.3a67.5 67.5 0 0 0-3.8-1h-1.2c-.2-.2.5-.1.3-.2a4.5 4.5 0 0 1-1 0c-.2-.2.4-.1.7-.1a7.4 7.4 0 0 0-2.2 0 .8.8 0 0 0-.6.3 8 8 0 0 0-1.4-.1 5 5 0 0 0-1.2.1c-.4 0-1-.1.4-.2h-1.1l-1.7.1c-1.2 0-2.2.2-2.2.3l-1.4.1-1.9.3c-.5 0-1 0-1.8.2h.5c-.7.3-1.5.3-2.9.6a16.8 16.8 0 0 0-3 .4h-.1s-.2 0-.3.4c0 .4.2.3.1.3h.1l.3.3.7.6v-.2c.1 0 .3 0 .5.3l.9.8.5.5.5.5 1 1-.4-.5.6.7.6.9 1 1.7c0 .2-.3-.3-.5-.5.7 1 .8 1.1.9 1l.6.7c.1.4-.4-.3.2.9l.2.3.2.5c.3.3.5.7.7 1.2.5 1 .8 2 .8 3l.1-.4.2.5v.6l1-.3c-.8-1.3-1.7-3-2.6-3.8l-.1-.2-1.6-1.8-.8-.8-.6-.5c-.1-.3-.5-.7-1-1.2a22 22 0 0 0-2-1.4c-1.3-.8-2.7-1.3-2.6-1.5-1-.5-2.2-.8-3.4-.9h.1l-.7-.1h-.7a7 7 0 0 0-2.4.2c-.5 0 0 0 0-.1a15.8 15.8 0 0 0-6 1.5H35l-1 .4-.8.2-1 .4a28 28 0 0 0-4 1.9 47 47 0 0 1-4.8 2.8l-1.2.6-.2.2c-.4-.6-.3 2 0 1.3h.1l.1.2.5.2.8.4.6.2 1 .6.9.6-1-.8h.3c.3.2.7.5.3 0l.7.7.6.6c.3.3.3.4-.2 0l-.2-.2c-.3 0 .4.5 1 1.3l1 1 .2.5a20.6 20.6 0 0 1 3.6 7l1-.6c-2-2.2-4-4.5-6.3-6.3l.4.6-.8-.6-.8-.6-.2-.3 1 .6a3.8 3.8 0 0 0-1.3-.9l-.9-.3c-1.2-.6-1-.6-.5-.4l.4.1.4.2c.1 0 .2 0 0 0l-1-.5.2.1-1-.3-.7-.1a17.9 17.9 0 0 0-1.8-.4H19.5c-.9 0-1.7.3-2.5.6l1-.2-.8.3-.5.3c-.3.1-.3.2.3 0a4 4 0 0 0-.9.3c-.2 0-.3.2-.5.3l-.6.3c-1 .6-1.8 1.2-2.6 1.9-1.7 1.4-3 3-3.5 3.2l-1.5 1.8-1.7 1.9.1-.1H6l.1-.1-.1.3-.2.3-.3.4-.3.1-.7 1L3 34.7c.1-.2.1-.1 0 .2l-.2.6-.3.8-.3 1.3c0 .3 0 .3.2-.1-.3 1.2-.2 0-.4 1-.4 3.2 0 7.3 2.3 10.7.1 0-.2-.6.4 0 .4.7.9 1.3 1.4 1.8l.8.3 1.2.6c-.1-.1-.4-.3 0-.1 1.9.8 3.8 1.3 5.8 1.4 2 .2 3.9.2 5.8 0h2.9a265.3 265.3 0 0 1 9.1.1c-.5 0 0-.1 0-.2l3.2.2c.5-.2 3.4 0 3.7-.3h-1c1.4-.2-1.9-.4-1.7-.7-1.5.2-4-.4-6.5 0-.5 0 .5-.1.2-.2-1 .2-1.9.2-2.8.1h.2-6.6L20 52H16.9l.3.2-1.6-.1.8.1c.7 0 1.4 0 .9.2-.7-.2-2.3-.2-3.9-.4s-3-.6-3.4-1c-1.3-.4.3.4-1 0l-.3-.3h-.4a6.8 6.8 0 0 1-.8-.6l-.3-.3.8.4a15 15 0 0 1-2.4-1.9l-.3-.4c0 .2.2.3.3.5l.4.5-.5-.5a13.2 13.2 0 0 1-1.1-1.9l-.3-.7L4 45c-.4-1-.6-2-.8-3v-1.6c0-1 0-1.9.2-2.9v.3l.3-1.6.2-.5.2-.4.4-1 .4-.6.4-1v.2l.5-1 .7-1c-.1.1-.1.1 0 0 0 0 .1 0 0 0l.2-.2c.3-.2.6-.4.2 0 1-1.2 1.3-1.5 1.4-1.8l.9-1.2.4-.2c.4-.7 1-1.3 1.5-1.9-.8 1 .9-.6 0 .6l2.9-2.6c.7-.7 1.4-1.2 2.1-1.4.3-.3.3-.3.1-.2-.3 0-.6.2-.8.4l-1 .7c-.4.2-.2 0 .2-.4a12.6 12.6 0 0 1 1.5-1l.8-.3.8-.2 2.7-.3h-.5 1.4l.8.2.3.1.4.2c.4 0 .7.2 1 .3.3.2.6.3.7.2a10 10 0 0 0-1.7-.7h.5l1 .5c.9.4 1.7.9 2.4 1.5a29.8 29.8 0 0 1-.4 0l.8.6c-.1 0-.3 0-.5-.3l-.5-.3-.5-.3c-.7-.6-1.5-1-2.3-1.3l.6.3.7.4c.5.3.7.4.4.4l.8.3.8.7 2 1.6h-.3l1.1.9-.8-.5c1.2.9 2 2.1 3 3-2-2.1-.4-.5-1.2-1.5 1.5 1.4 1.7 1.8 2 2.4a.7.7 0 0 0 1.3-.5V29c0-.6-.1-1.4-1-3.1.3.5.8 2 .4 1.2l-.9-2.3c-1.4-2.4.1.5-.6-.5-.3-1-.8-1.2-1.6-2.1l.2-.1-1-1.2-.4-.3c-.2 0-.3-.1-1.3-1.2l1 .7-1.1-1 .3.1-.8-.6-.7-.6-.6-.5-.9-.6c.2.2 0 .2-.2 0-.3 0-.7-.3-1.4-.6-.4-.3-.2-.3-.2-.3h-.1s.2 0 .2.2a.6.6 0 0 1 0 .6l-.2.2a29.6 29.6 0 0 0 .2 0 .7.7 0 0 0-.2-1.2l.3.1.5.4.5.1-.7-.5-.4-.2h-.1a.9.9 0 0 1 .5.7.8.8 0 0 1-.4.8l.3-.2 1.2-.8a9 9 0 0 1-.7.4l1.2-.9L26 15c.5-.2.2 0-.1.2l1.5-1c-.1.3 0 .3-1 1l2.3-1.5c.2 0 1.3-.5 1-.3 1.3-.6 3.1-1.8 5-2.4l.7-.4 1.2-.4c.5 0 .9-.2 1.3-.3l1.4-.3 1.5-.3H42c-.2-.2-.4-.2 1-.3l1.2.1c0 .1-.1.2.2.2h.9a10 10 0 0 1 2.2.5 6.5 6.5 0 0 1 1.2.6L48 10a6 6 0 0 0-.7-.3Zm11.4 5.4.4.8.3.7-.4-.6-.3-.9Zm9.9-11L67.3 4h1.3Zm42.3 20c0 .9 0 .5 0 0Zm-.2-2c0-.1 0 0 0 0l.1 1v-1ZM20 19.8h.4c-1 .1-.7 0-.4 0Z"/>
    <path d="m65 4.2-.3-.1h.2ZM34.8 10.9h-.1ZM101 10.6ZM109.9 12.7l-1-.3a.9.9 0 0 0-1.2.7v.5l.2.2-.1-.2a.9.9 0 0 1 .6-1.3h.5l.8.4s-.2-.2.2 0ZM118.6 19.3l.4.3c-.6-.6-1-.9-.4-.3ZM110.8 13.6c0 .2.7.4 1.5.8h-.1c.3 0-.5-.5-1.4-.8ZM112.5 14.5l.7.4-.7-.4ZM110.1 19.9c0-.4-.2-.2-.2-.5-.2-.4.9 2.6.2.5ZM111.2 14.3l-.2-.3h-.5c.3 0 .5.2.7.3ZM110 17l-.5-1.3-.1-.3c.3.8.5 1.7.6 1.6ZM109.4 15.4l-.5-1 .5 1Z"/>
    <path d="m109.5 13.6-.4-.2-.5-.2.2.5-.2-.5.9.4ZM110.4 27.6l-.2-1.5c-.1-.1 0 .3 0 .8l.2.7ZM111.8 27.2l-.3.6.2.1.1-.7ZM110 27.8c-.1-.1-.5-2.1-.2-.2 0 .1.3 1.6.2.2ZM99.4 8.9l.3.2.2-.3h-.5ZM83 4.7l-.6-.7v-.1l-.1.3-.8.4.6.1-.6-.1.7-.4V4l.4.5.2.3c.1.2.2.2.2 0Z"/>
    <path d="M82.2 4v.2l-.7.3h.3-.3l.7-.3V4ZM37 53.4l1.2.1-.8-.1H37ZM39.2 53.2l.3.2.7-.2h-1ZM57.4 12c0 .3.2.6.4.9l-.4-.9ZM54.2 14.8l.1.2-.2-.4v.2ZM43.6 9.4l1.5.2c-1-.1-1.7-.4-1.5-.2ZM36.7 53h8.1v-.2c-2.2 0-2.7-.8-2.7-3.4V36.6c4.1 0 5 1 5.9 4.4h.1v-3c0-.8-.2-1.4-.5-1.8-.4.2-1.4.2-2 .2H36c-.6 0-1.6 0-2-.2-.2.4-.3 1-.4 1.8v3h.1c.8-3.4 1.8-4.4 5.9-4.4v12.7c0 2.6-.4 3.4-2.8 3.5v.2Zm12.6.2c1.5 0 2.4-.7 3.2-2 0 .6.2 1.1.4 1.4.4.4.7.5 1.2.6l2.9-1V52h-1c-1 0-1.3-.8-1.3-2.5v-4.1c0-2.8-1.3-3.6-2.9-3.6-.7 0-1.8.3-2.6.7-1.1.6-1.8 1-1.8 1.8 0 .6.4 1 1.2 1h.5l.3-.2a8 8 0 0 1 0-2.4l.1-.2h1c.6 0 1.2.2 1.5.8.3.5.5 1.2.5 2.4v1.2L48.2 48a3 3 0 0 0-1.4 2.8c0 1.4 1 2.3 2.5 2.3Zm1.3-1.2c-.8 0-1.5-.5-1.6-1.5 0-1 .3-1.9.7-2.3l2.8-1.1v3.4c0 .8-1 1.5-1.9 1.5Zm10.7-13.5c0-1 0-2.4.2-3l-.1-.1-4.2 1.3v.1l1.5.4c.3.4.4 1.3.4 2.6v10c0 2.5-.3 2.9-2 3v.2h6.3v-.2c-1.7-.1-2-.5-2-3V38.5ZM70 53.2c1-.3 2.3-1 3.4-1.5l-.1-.3c-.8.4-1.6.6-2.6.5-2.3 0-4-1.6-4-5.5H73l.2-.2c0-2.4-1-4.5-3.9-4.5-2.8 0-4.8 2.4-4.8 6 0 4 2 5.8 5.5 5.5Zm-3.3-7c0-2.2.8-4.2 2.3-4.2 1.4 0 2 2 2 4.1l-4.3.1ZM78.2 42l-.1-.1-4.2 1.2v.2l1.5.3c.3.4.5 1.1.5 2.7V50c0 2-.6 2.6-2 2.7v.2h5.6v-.2c-1.4-.2-1.4-.8-1.4-2.8v-6a8 8 0 0 1 1.7-.8c1.8 0 2.6.8 2.6 3.2V50c0 1.9 0 2.7-1.5 2.8v.2a46.2 46.2 0 0 1 5.2 0v-.2c-1.4-.1-1.5-.8-1.5-2.8V46a8 8 0 0 0-.3-2l1.7-.7c2 0 2.9.7 2.9 3.2V50c0 2-.3 2.6-1.6 2.7v.2a59.8 59.8 0 0 1 5.5 0v-.2c-1.2-.1-1.7-.6-1.7-2.7V46c0-3-1.1-4-3-4-.5 0-1.1 0-1.6.2l-2.2 1.6c-.5-1.3-1.3-1.9-2.6-1.9-.4 0-1 .1-1.3.3-.8.4-1.6 1-2.3 1.6V42Zm21.2 11.3c1-.3 2.3-1 3.3-1.5v-.3c-.8.4-1.6.6-2.6.5-2.3 0-4-1.6-4-5.5h6.3l.2-.2c0-2.4-1-4.5-3.9-4.5-2.8 0-4.8 2.4-4.8 6 0 4 2 5.8 5.5 5.5Zm-3.3-7c0-2.2.8-4.2 2.3-4.2 1.3 0 2 2 2 4.1l-4.3.1Zm11.5-7.7v-3.1l-4.2 1.3v.1l1.5.4c.3.4.5 1.3.5 2.6v10c0 2.5-.4 2.9-2 3v.2h6.2v-.2c-1.7-.1-2-.5-2-3V38.5Zm5.6 1.2c.9 0 1.5-.6 1.5-1.5 0-.8-.6-1.5-1.5-1.5s-1.5.7-1.5 1.5c0 .9.6 1.5 1.5 1.5ZM110.4 53a63.8 63.8 0 0 1 6.1 0v-.2c-1.7-.1-1.9-.5-1.9-3v-8c-.7.3-3 1-4.2 1.2v.2l1.5.3c.4.5.5 1.4.5 2.7v3.6c0 2.5-.4 2.9-2 3v.2Zm12.8.2c1-.3 2.3-1 3.4-1.5v-.3c-.9.4-1.7.6-2.6.5-2.4 0-4-1.6-4-5.5h6.2l.2-.2c0-2.4-1-4.5-3.9-4.5-2.8 0-4.8 2.4-4.8 6 0 4 2 5.8 5.5 5.5Zm-3.2-7c0-2.2.7-4.2 2.2-4.2 1.4 0 2 2 2 4.1l-4.2.1Zm7.3-3 1.4.3c.3.4.5 1.1.5 2.7v3.4c0 2.3-.3 3.1-2 3.2v.2a66.4 66.4 0 0 1 6.3 0v-.2c-2 0-2.1-.9-2.1-3.2V45c.5-.8 1.2-1.3 2-1.4.7 0 1.4.4 2.2.9l.2-.2.1-.8c0-.8-.4-1.8-1.7-1.7-.4.1-1 .4-1.5 1l-1.3 1.9.1-2.8v-.1l-4.2 1.2v.2Z"/>
</svg>